<?xml version="1.0" encoding="utf-8"?>
<!-- Generator: Adobe Illustrator 26.3.1, SVG Export Plug-In . SVG Version: 6.00 Build 0)  -->
<svg version="1.1" xmlns="http://www.w3.org/2000/svg" xmlns:xlink="http://www.w3.org/1999/xlink" x="0px" y="0px"
	 viewBox="0 0 1280 800" style="enable-background:new 0 0 1280 800;" xml:space="preserve">
<style type="text/css">
	.st0{fill:url(#SVGID_1_);}
	.st1{fill:url(#SVGID_00000072988951394535482990000004462033939528061582_);}
	.st2{opacity:0.6;clip-path:url(#SVGID_00000157999858298071007550000011047975202542765968_);}
	.st3{fill:url(#SVGID_00000003806748672625796220000005970512671438650021_);}
	.st4{opacity:0.68;clip-path:url(#SVGID_00000171686051836963343280000003245324325639853989_);}
	.st5{fill:url(#下_00000078743082514850038160000014342731195476189098_);}
	.st6{fill:url(#SVGID_00000000198436373418746020000013679713625279387319_);}
	.st7{fill:url(#SVGID_00000106116265370415742430000008805987143225648317_);}
	.st8{fill:#333333;}
</style>
<g id="レイヤー_1">
	<g id="シャドウ">
		<g>
		</g>
	</g>
	<g id="デスクトップ">
		<g id="基本">
			
				<linearGradient id="SVGID_1_" gradientUnits="userSpaceOnUse" x1="530.9996" y1="736.3" x2="749.0005" y2="736.3" gradientTransform="matrix(1 0 0 1 0 -42)">
				<stop  offset="0" style="stop-color:#797A7E"/>
				<stop  offset="2.500000e-02" style="stop-color:#929397"/>
				<stop  offset="5.910000e-02" style="stop-color:#ACAEB1"/>
				<stop  offset="9.819999e-02" style="stop-color:#C2C4C6"/>
				<stop  offset="0.1439" style="stop-color:#D3D5D7"/>
				<stop  offset="0.2005" style="stop-color:#DEE0E2"/>
				<stop  offset="0.2798" style="stop-color:#E5E7E9"/>
				<stop  offset="0.5" style="stop-color:#E7E9EB"/>
				<stop  offset="0.7202" style="stop-color:#E5E7E9"/>
				<stop  offset="0.7995" style="stop-color:#DEE0E2"/>
				<stop  offset="0.8561" style="stop-color:#D3D5D7"/>
				<stop  offset="0.9018" style="stop-color:#C2C4C6"/>
				<stop  offset="0.9409" style="stop-color:#ACAEB1"/>
				<stop  offset="0.975" style="stop-color:#929397"/>
				<stop  offset="1" style="stop-color:#797A7E"/>
			</linearGradient>
			<path class="st0" d="M749,694.4v-2.7H640H531v2.7c0,0-0.2,2.5,7.8,2.5s101.3,0,101.3,0s93.3,0,101.3,0
				C749.2,696.9,749,694.4,749,694.4z"/>
			
				<linearGradient id="SVGID_00000134238914134645909870000000601512186399066015_" gradientUnits="userSpaceOnUse" x1="640" y1="729.4636" x2="640" y2="739.2097" gradientTransform="matrix(1 0 0 1 0 -42)">
				<stop  offset="0.6646" style="stop-color:#FFFFFF"/>
				<stop  offset="0.7926" style="stop-color:#FDFDFD"/>
				<stop  offset="0.8387" style="stop-color:#F6F6F7"/>
				<stop  offset="0.8716" style="stop-color:#EBEBEB"/>
				<stop  offset="0.8981" style="stop-color:#DADADB"/>
				<stop  offset="0.9209" style="stop-color:#C4C4C6"/>
				<stop  offset="0.941" style="stop-color:#A8A9AC"/>
				<stop  offset="0.9588" style="stop-color:#898A8D"/>
				<stop  offset="0.9664" style="stop-color:#797A7E"/>
			</linearGradient>
			<path style="fill:url(#SVGID_00000134238914134645909870000000601512186399066015_);" d="M749,694.4v-2.7H640H531v2.7
				c0,0-0.2,2.5,7.8,2.5s101.3,0,101.3,0s93.3,0,101.3,0C749.2,696.9,749,694.4,749,694.4z"/>
			<g>
				<g>
					<g>
						<defs>
							<path id="SVGID_00000034805444314345859260000013461753696555646606_" d="M531.7,692.3c0,0-3.5,2.5,4.7,3.3s103.6,0,103.6,0
								s95.4,0.8,103.6,0s4.7-3.3,4.7-3.3H531.7z"/>
						</defs>
						<clipPath id="SVGID_00000034072890484180795510000004116619207954691749_">
							<use xlink:href="#SVGID_00000034805444314345859260000013461753696555646606_"  style="overflow:visible;"/>
						</clipPath>
						<g style="opacity:0.6;clip-path:url(#SVGID_00000034072890484180795510000004116619207954691749_);">
						</g>
					</g>
				</g>
			</g>
			<g>
				
					<linearGradient id="SVGID_00000029006153962632547930000014335116127680474523_" gradientUnits="userSpaceOnUse" x1="640.0549" y1="639.0191" x2="640.0549" y2="734.5387" gradientTransform="matrix(1 0 0 1 0 -42)">
					<stop  offset="3.560000e-02" style="stop-color:#878787"/>
					<stop  offset="0.1763" style="stop-color:#A5A6A7"/>
					<stop  offset="0.4152" style="stop-color:#E1E2E4"/>
					<stop  offset="0.5052" style="stop-color:#F0F0F1"/>
					<stop  offset="0.5793" style="stop-color:#F6F6F6"/>
					<stop  offset="0.6006" style="stop-color:#EDEDED"/>
					<stop  offset="0.6356" style="stop-color:#D3D4D5"/>
					<stop  offset="0.6799" style="stop-color:#ABACAE"/>
					<stop  offset="0.7141" style="stop-color:#87888C"/>
					<stop  offset="0.7742" style="stop-color:#8B8C90"/>
					<stop  offset="0.7971" style="stop-color:#8E8F94"/>
					<stop  offset="0.9215" style="stop-color:#D2D3D6"/>
					<stop  offset="1" style="stop-color:#F9FAFC"/>
				</linearGradient>
				<path style="fill:url(#SVGID_00000029006153962632547930000014335116127680474523_);" d="M748.3,690.4c0,0-19.1-12.9-23-16
					s-5.4-3.6-7.4-12.5c-2.7-11.5-6.8-65.1-6.8-65.1H640h-71c0,0-4.2,53.6-6.8,65.1c-2,8.9-3.5,9.4-7.4,12.5s-23,16-23,16
					s-3.5,2.5,4.7,3.3s103.6,0,103.6,0s95.4,0.8,103.6,0C751.8,692.9,748.3,690.4,748.3,690.4z"/>
			</g>
			<g>
				<g>
					<g>
						<defs>
							<path id="SVGID_00000146471226807267813360000013634425815467634862_" d="M748.3,690.4c0,0-19.1-12.9-23-16
								s-5.4-3.6-7.4-12.5c-2.7-11.5-6.8-65.1-6.8-65.1H640h-71c0,0-4.2,53.6-6.8,65.1c-2,8.9-3.5,9.4-7.4,12.5s-23,16-23,16
								s-3.5,2.5,4.7,3.3s103.6,0,103.6,0s95.4,0.8,103.6,0C751.8,692.9,748.3,690.4,748.3,690.4z"/>
						</defs>
						<clipPath id="SVGID_00000019668480353338052760000012461674746127462835_">
							<use xlink:href="#SVGID_00000146471226807267813360000013634425815467634862_"  style="overflow:visible;"/>
						</clipPath>
						<g style="opacity:0.68;clip-path:url(#SVGID_00000019668480353338052760000012461674746127462835_);">
						</g>
					</g>
				</g>
			</g>
		</g>
		
			<linearGradient id="下_00000004509503864644888360000017756319282719938723_" gradientUnits="userSpaceOnUse" x1="281.2" y1="605.8" x2="998.6" y2="605.8" gradientTransform="matrix(1 0 0 1 0 -42)">
			<stop  offset="0.1604" style="stop-color:#A6A7AB"/>
			<stop  offset="1" style="stop-color:#E2E3E5"/>
		</linearGradient>
		<path id="下" style="fill:url(#下_00000004509503864644888360000017756319282719938723_);" d="M281.2,579.3
			c0,9.7,7.9,17.5,17.5,17.5h682.4c9.7,0,17.5-7.8,17.5-17.5v-48.5H281.2V579.3z"/>
		<path id="境界線" d="M981.2,103.1H298.8c-9.7,0-17.5,7.8-17.5,17.5v410.1h717.5V120.6C998.8,110.9,990.9,103.1,981.2,103.1z"/>
		<g id="カメラ">
			
				<linearGradient id="SVGID_00000142872493102018575360000003533993510867480230_" gradientUnits="userSpaceOnUse" x1="640" y1="154.001" x2="640" y2="159.8074" gradientTransform="matrix(1 0 0 1 0 -42)">
				<stop  offset="0" style="stop-color:#000000"/>
				<stop  offset="0.2885" style="stop-color:#030303"/>
				<stop  offset="0.4812" style="stop-color:#0B0B0C"/>
				<stop  offset="0.646" style="stop-color:#1A1A1B"/>
				<stop  offset="0.7949" style="stop-color:#2E2E30"/>
				<stop  offset="0.9321" style="stop-color:#49494B"/>
				<stop  offset="1" style="stop-color:#59595C"/>
			</linearGradient>
			<circle style="fill:url(#SVGID_00000142872493102018575360000003533993510867480230_);" cx="640" cy="115" r="2.8"/>
			<circle cx="640" cy="115" r="1.7"/>
			
				<linearGradient id="SVGID_00000085973621713432877480000006325086976860459706_" gradientUnits="userSpaceOnUse" x1="639.7" y1="155.3168" x2="639.7" y2="158.826" gradientTransform="matrix(1 0 0 1 0 -42)">
				<stop  offset="0" style="stop-color:#000000"/>
				<stop  offset="0.2885" style="stop-color:#030303"/>
				<stop  offset="0.4812" style="stop-color:#0B0B0C"/>
				<stop  offset="0.646" style="stop-color:#1A1A1B"/>
				<stop  offset="0.7949" style="stop-color:#2E2E30"/>
				<stop  offset="0.9321" style="stop-color:#49494B"/>
				<stop  offset="1" style="stop-color:#59595C"/>
			</linearGradient>
			<circle style="fill:url(#SVGID_00000085973621713432877480000006325086976860459706_);" cx="639.7" cy="115" r="1.4"/>
		</g>
		<g id="_x5B_スクリーンをここに入力_x5D_">
			<rect id="_x5B_スクリーンをここに入力_x5D__1_" x="310.3" y="131.9" class="st8" width="659.3" height="371.3"/>
		</g>
	</g>
</g>
<g id="レイヤー_2">
</g>
</svg>
