<?xml version="1.0" encoding="utf-8"?>
<!-- Generator: Adobe Illustrator 26.3.1, SVG Export Plug-In . SVG Version: 6.00 Build 0)  -->
<svg version="1.1" id="レイヤー_1" xmlns="http://www.w3.org/2000/svg" xmlns:xlink="http://www.w3.org/1999/xlink" x="0px"
	 y="0px" viewBox="0 0 1280 800" style="enable-background:new 0 0 1280 800;" xml:space="preserve">
<style type="text/css">
	.st0{fill:url(#SVGID_1_);}
	.st1{fill:url(#SVGID_00000164515658547864789150000012366730673172485265_);}
	.st2{fill:url(#SVGID_00000127743267812472901890000006534466338862348176_);}
	.st3{fill:url(#下_00000144310811277207864300000014812558757562550929_);}
	.st4{fill:url(#SVGID_00000018197039981223717980000008763147334814929543_);}
	.st5{fill:url(#SVGID_00000183938652200454331630000013384709581126162081_);}
	.st6{fill:#333333;}
</style>
<g id="シャドウ">
</g>
<g id="デスクトップ">
	<g id="基本">
		
			<linearGradient id="SVGID_1_" gradientUnits="userSpaceOnUse" x1="484.8523" y1="-22.4823" x2="795.1478" y2="-22.4823" gradientTransform="matrix(1 0 0 -1 0 757.89)">
			<stop  offset="0" style="stop-color:#797A7E"/>
			<stop  offset="2.500000e-02" style="stop-color:#929397"/>
			<stop  offset="5.910000e-02" style="stop-color:#ACAEB1"/>
			<stop  offset="9.819999e-02" style="stop-color:#C2C4C6"/>
			<stop  offset="0.1439" style="stop-color:#D3D5D7"/>
			<stop  offset="0.2005" style="stop-color:#DEE0E2"/>
			<stop  offset="0.2798" style="stop-color:#E5E7E9"/>
			<stop  offset="0.5" style="stop-color:#E7E9EB"/>
			<stop  offset="0.7202" style="stop-color:#E5E7E9"/>
			<stop  offset="0.7995" style="stop-color:#DEE0E2"/>
			<stop  offset="0.8561" style="stop-color:#D3D5D7"/>
			<stop  offset="0.9018" style="stop-color:#C2C4C6"/>
			<stop  offset="0.9409" style="stop-color:#ACAEB1"/>
			<stop  offset="0.975" style="stop-color:#929397"/>
			<stop  offset="1" style="stop-color:#797A7E"/>
		</linearGradient>
		<path class="st0" d="M795.1,780.5V777H640H484.9v3.5c0,0-0.3,3.2,11.1,3.2c11.4,0,144.2,0,144.2,0s132.8,0,144.2,0
			C795.4,783.7,795.1,780.5,795.1,780.5z"/>
		
			<linearGradient id="SVGID_00000165234152028000808710000012153705500792742021_" gradientUnits="userSpaceOnUse" x1="640" y1="-13.6465" x2="640" y2="-26.243" gradientTransform="matrix(1 0 0 -1 0 757.89)">
			<stop  offset="0.6646" style="stop-color:#FFFFFF"/>
			<stop  offset="0.7926" style="stop-color:#FDFDFD"/>
			<stop  offset="0.8387" style="stop-color:#F6F6F7"/>
			<stop  offset="0.8716" style="stop-color:#EBEBEB"/>
			<stop  offset="0.8981" style="stop-color:#DADADB"/>
			<stop  offset="0.9209" style="stop-color:#C4C4C6"/>
			<stop  offset="0.941" style="stop-color:#A8A9AC"/>
			<stop  offset="0.9588" style="stop-color:#898A8D"/>
			<stop  offset="0.9664" style="stop-color:#797A7E"/>
		</linearGradient>
		<path style="fill:url(#SVGID_00000165234152028000808710000012153705500792742021_);" d="M795.1,780.5V777H640H484.9v3.5
			c0,0-0.3,3.2,11.1,3.2c11.4,0,144.2,0,144.2,0s132.8,0,144.2,0C795.4,783.7,795.1,780.5,795.1,780.5z"/>
		<g>
			<g>
				<g>
					<g>
						<defs>
							<path id="SVGID_00000152984187237062768040000013361542920036826295_" d="M485.8,777.8c0,0-5,3.2,6.7,4.3
								c11.7,1,147.5,0,147.5,0s135.8,1,147.5,0c11.7-1,6.7-4.3,6.7-4.3H485.8z"/>
						</defs>
						<clipPath id="SVGID_00000148656125878292001970000014169608091678199717_">
							<use xlink:href="#SVGID_00000152984187237062768040000013361542920036826295_"  style="overflow:visible;"/>
						</clipPath>
					</g>
				</g>
			</g>
		</g>
		<g>
			
				<linearGradient id="SVGID_00000080912369218647292310000013619710342958192308_" gradientUnits="userSpaceOnUse" x1="640.0782" y1="103.2498" x2="640.0782" y2="-20.2059" gradientTransform="matrix(1 0 0 -1 0 757.89)">
				<stop  offset="3.560000e-02" style="stop-color:#878787"/>
				<stop  offset="0.1763" style="stop-color:#A5A6A7"/>
				<stop  offset="0.4152" style="stop-color:#E1E2E4"/>
				<stop  offset="0.5052" style="stop-color:#F0F0F1"/>
				<stop  offset="0.5793" style="stop-color:#F6F6F6"/>
				<stop  offset="0.6006" style="stop-color:#EDEDED"/>
				<stop  offset="0.6356" style="stop-color:#D3D4D5"/>
				<stop  offset="0.6799" style="stop-color:#ABACAE"/>
				<stop  offset="0.7141" style="stop-color:#87888C"/>
				<stop  offset="0.7742" style="stop-color:#8B8C90"/>
				<stop  offset="0.7971" style="stop-color:#8E8F94"/>
				<stop  offset="0.9215" style="stop-color:#D2D3D6"/>
				<stop  offset="1" style="stop-color:#F9FAFC"/>
			</linearGradient>
			<path style="fill:url(#SVGID_00000080912369218647292310000013619710342958192308_);" d="M794.2,775.3c0,0-27.2-16.7-32.7-20.7
				c-5.6-4-7.7-4.7-10.5-16.2c-3.8-14.9-9.7-84.1-9.7-84.1H640H538.9c0,0-6,69.3-9.7,84.1c-2.8,11.5-5,12.1-10.5,16.2
				S486,775.3,486,775.3s-5,3.2,6.7,4.3c11.7,1,147.5,0,147.5,0s135.8,1,147.5,0C799.1,778.6,794.2,775.3,794.2,775.3z"/>
		</g>
		<g>
			<g>
				<g>
					<g>
						<defs>
							<path id="SVGID_00000121964253505138408110000011522222505639084727_" d="M794.2,775.3c0,0-27.2-16.7-32.7-20.7
								c-5.6-4-7.7-4.7-10.5-16.2c-3.8-14.9-9.7-84.1-9.7-84.1H640H538.9c0,0-6,69.3-9.7,84.1c-2.8,11.5-5,12.1-10.5,16.2
								S486,775.3,486,775.3s-5,3.2,6.7,4.3c11.7,1,147.5,0,147.5,0s135.8,1,147.5,0C799.1,778.6,794.2,775.3,794.2,775.3z"/>
						</defs>
						<clipPath id="SVGID_00000082363171089716359150000017436547645736886405_">
							<use xlink:href="#SVGID_00000121964253505138408110000011522222505639084727_"  style="overflow:visible;"/>
						</clipPath>
					</g>
				</g>
			</g>
		</g>
	</g>
	
		<linearGradient id="下_00000161615104880377156820000000994247596384677823_" gradientUnits="userSpaceOnUse" x1="129.2957" y1="146.1843" x2="1150.4197" y2="146.1843" gradientTransform="matrix(1 0 0 -1 0 757.89)">
		<stop  offset="0.1604" style="stop-color:#A6A7AB"/>
		<stop  offset="1" style="stop-color:#E2E3E5"/>
	</linearGradient>
	<path id="下" style="fill:url(#下_00000161615104880377156820000000994247596384677823_);" d="M129.3,631.7
		c0,12.5,11.2,22.6,24.9,22.6h971.3c13.8,0,24.9-10.1,24.9-22.6v-62.7H129.3V631.7z"/>
	<path id="境界線" d="M1125.7,16.3H154.3c-13.8,0-24.9,10.1-24.9,22.6v530h1021.3v-530C1150.7,26.3,1139.5,16.3,1125.7,16.3z"/>
	<g id="カメラ">
		
			<linearGradient id="SVGID_00000053518766293837683330000004387473437717711031_" gradientUnits="userSpaceOnUse" x1="640" y1="730.1185" x2="640" y2="722.614" gradientTransform="matrix(1 0 0 -1 0 757.89)">
			<stop  offset="0" style="stop-color:#000000"/>
			<stop  offset="0.2885" style="stop-color:#030303"/>
			<stop  offset="0.4812" style="stop-color:#0B0B0C"/>
			<stop  offset="0.646" style="stop-color:#1A1A1B"/>
			<stop  offset="0.7949" style="stop-color:#2E2E30"/>
			<stop  offset="0.9321" style="stop-color:#49494B"/>
			<stop  offset="1" style="stop-color:#59595C"/>
		</linearGradient>
		<ellipse style="fill:url(#SVGID_00000053518766293837683330000004387473437717711031_);" cx="640" cy="31.6" rx="4" ry="3.6"/>
		<ellipse cx="640" cy="31.6" rx="2.4" ry="2.2"/>
		
			<linearGradient id="SVGID_00000109741942128328873570000001750356068381096092_" gradientUnits="userSpaceOnUse" x1="639.573" y1="728.4178" x2="639.573" y2="723.8823" gradientTransform="matrix(1 0 0 -1 0 757.89)">
			<stop  offset="0" style="stop-color:#000000"/>
			<stop  offset="0.2885" style="stop-color:#030303"/>
			<stop  offset="0.4812" style="stop-color:#0B0B0C"/>
			<stop  offset="0.646" style="stop-color:#1A1A1B"/>
			<stop  offset="0.7949" style="stop-color:#2E2E30"/>
			<stop  offset="0.9321" style="stop-color:#49494B"/>
			<stop  offset="1" style="stop-color:#59595C"/>
		</linearGradient>
		<ellipse style="fill:url(#SVGID_00000109741942128328873570000001750356068381096092_);" cx="639.6" cy="31.6" rx="2" ry="1.8"/>
	</g>
	<g id="_x5B_スクリーンをここに入力_x5D_">
		<rect id="_x5B_スクリーンをここに入力_x5D__1_" x="170.7" y="53.5" class="st6" width="938.4" height="479.9"/>
	</g>
</g>
<g id="レイヤー_2_00000133512149200526019230000008219375444843500725_">
</g>
</svg>
