<?xml version="1.0" encoding="utf-8"?>
<!-- Generator: Adobe Illustrator 26.3.1, SVG Export Plug-In . SVG Version: 6.00 Build 0)  -->
<svg version="1.1" xmlns="http://www.w3.org/2000/svg" xmlns:xlink="http://www.w3.org/1999/xlink" x="0px" y="0px"
	 viewBox="0 0 2000 1400" style="enable-background:new 0 0 2000 1400;" xml:space="preserve">
<style type="text/css">
	
		.st0{fill:url(#ボディ_-_フレーム_00000098196396840988107250000016787244215733877169_);stroke:#FFFFFF;stroke-miterlimit:10;}
	.st1{fill:#202126;stroke:#FFFFFF;stroke-miterlimit:10;}
	.st2{stroke:#FFFFFF;stroke-miterlimit:10;}
	.st3{fill:#282829;stroke:#FFFFFF;stroke-miterlimit:10;}
	.st4{fill:url(#SVGID_1_);stroke:#FFFFFF;stroke-miterlimit:10;}
	.st5{fill:url(#SVGID_00000117676047388441411200000017633948852821848470_);stroke:#FFFFFF;stroke-miterlimit:10;}
	.st6{fill:url(#SVGID_00000005268671475290067200000009632517184895827606_);stroke:#FFFFFF;stroke-miterlimit:10;}
	.st7{fill:url(#SVGID_00000183938571270169698660000015862194790782598021_);stroke:#FFFFFF;stroke-miterlimit:10;}
	.st8{fill:#65ABD8;stroke:#FFFFFF;stroke-width:2;stroke-miterlimit:10;}
	.st9{font-family:'Apple-Chancery';}
	.st10{font-size:133.3063px;}
	.st11{fill:none;stroke:#FFFFFF;stroke-width:2;stroke-miterlimit:10;}
	.st12{fill:#FFFFFF;}
	.st13{font-size:58.6307px;}
	.st14{font-size:61.7165px;}
	.st15{fill:#65ABD8;stroke:#FFFFFF;stroke-miterlimit:10;}
	.st16{font-family:'BrushScriptMT';}
	.st17{font-size:119.5047px;}
</style>
<g id="ゴールドのラップトップ">
	<g id="シャドウ_00000047020786558490257340000014988030230871834261_">
		
			<image style="overflow:visible;" width="1151" height="87" xlink:href="B7E36AFB306EFA18.png"  transform="matrix(1 0 0 1 505 956)">
		</image>
	</g>
	
		<linearGradient id="ボディ_-_フレーム_00000083783236731088392640000017116136975806357899_" gradientUnits="userSpaceOnUse" x1="585.8714" y1="649.0773" x2="1573.7922" y2="649.0773">
		<stop  offset="0" style="stop-color:#E6D19E"/>
		<stop  offset="1" style="stop-color:#BDA771"/>
	</linearGradient>
	
		<path id="ボディ_-_フレーム_00000042723649680016723740000008256152862988368561_" style="fill:url(#ボディ_-_フレーム_00000083783236731088392640000017116136975806357899_);stroke:#FFFFFF;stroke-miterlimit:10;" d="
		M1573.8,955.5c0,19.9-16.4,36.1-36.6,36.1H622.4c-20.1,0-36.6-16.3-36.6-36.1V342.6c0-19.9,16.4-36.1,36.6-36.1h914.8
		c20.1,0,36.6,16.3,36.6,36.1V955.5z"/>
	<path id="下_00000107589272466790680460000006293865486863872431_" class="st1" d="M585.9,955.5c0,17.8,14.8,32.3,32.9,32.3h922.1
		c18.1,0,32.9-14.5,32.9-32.3v-12H585.9V955.5z"/>
	<path id="境界線_00000085208105404280618110000015380852267975511202_" class="st2" d="M1540.9,310.4H618.8
		c-18.1,0-32.9,14.5-32.9,32.3v600.9h987.9V342.6C1573.8,324.9,1559,310.4,1540.9,310.4z"/>
	<g id="_x5B_スクリーンをここに入力_x5D_">
		<rect id="_x5B_スクリーンをここに入力_x5D__1_" x="609.5" y="331.7" class="st3" width="940.7" height="587.5"/>
	</g>
	<g id="ボディ_00000007418767517136799860000013576903370373660852_">
		<linearGradient id="SVGID_1_" gradientUnits="userSpaceOnUse" x1="530.2947" y1="973.921" x2="1630.2948" y2="973.921">
			<stop  offset="0" style="stop-color:#876308"/>
			<stop  offset="2.315561e-02" style="stop-color:#F7F2E6"/>
			<stop  offset="7.818541e-02" style="stop-color:#CFBF9A"/>
			<stop  offset="0.5049" style="stop-color:#F7E5B9"/>
			<stop  offset="0.913" style="stop-color:#CFC09B"/>
			<stop  offset="0.9721" style="stop-color:#F7F3E8"/>
			<stop  offset="0.9754" style="stop-color:#F5F0E3"/>
			<stop  offset="0.979" style="stop-color:#EEE7D6"/>
			<stop  offset="0.9828" style="stop-color:#E2D8C0"/>
			<stop  offset="0.9868" style="stop-color:#D2C3A0"/>
			<stop  offset="0.9909" style="stop-color:#BDA878"/>
			<stop  offset="0.995" style="stop-color:#A48847"/>
			<stop  offset="0.9992" style="stop-color:#87610E"/>
			<stop  offset="1" style="stop-color:#805901"/>
		</linearGradient>
		<polygon class="st4" points="1630.3,970.9 1080.3,970.9 530.3,970.9 530.3,977 1630.3,977 		"/>
		
			<linearGradient id="SVGID_00000142887106451591678590000005362382883960060546_" gradientUnits="userSpaceOnUse" x1="1080.2948" y1="976.8509" x2="1080.2948" y2="995.908">
			<stop  offset="0" style="stop-color:#CFBF9A"/>
			<stop  offset="0.8707" style="stop-color:#615443"/>
		</linearGradient>
		<path style="fill:url(#SVGID_00000142887106451591678590000005362382883960060546_);stroke:#FFFFFF;stroke-miterlimit:10;" d="
			M1080.3,995.1c0,0,284.7,0,400.3,0s149.7-18.1,149.7-18.1h-1100c0,0,34.2,18.1,149.7,18.1S1080.3,995.1,1080.3,995.1z"/>
		
			<linearGradient id="SVGID_00000106122251859261040870000000645655497476965006_" gradientUnits="userSpaceOnUse" x1="975.3188" y1="975.3734" x2="1185.2706" y2="975.3734">
			<stop  offset="0" style="stop-color:#73633C"/>
			<stop  offset="1.005464e-02" style="stop-color:#7E6E48"/>
			<stop  offset="4.758497e-02" style="stop-color:#A4946E"/>
			<stop  offset="8.224707e-02" style="stop-color:#C0B089"/>
			<stop  offset="0.1127" style="stop-color:#D0C09A"/>
			<stop  offset="0.1356" style="stop-color:#D6C6A0"/>
			<stop  offset="0.8749" style="stop-color:#D1C19D"/>
			<stop  offset="0.8965" style="stop-color:#CABA96"/>
			<stop  offset="0.9285" style="stop-color:#B6A683"/>
			<stop  offset="0.9668" style="stop-color:#958665"/>
			<stop  offset="1" style="stop-color:#736545"/>
		</linearGradient>
		<path style="fill:url(#SVGID_00000106122251859261040870000000645655497476965006_);stroke:#FFFFFF;stroke-miterlimit:10;" d="
			M1080.3,970.9h-105v6.1c7.3,1.9,22,2.9,42.5,2.9c16.9,0,62.5,0,62.5,0s45.6,0,62.5,0c20.5,0,35.2-1,42.5-2.9v-6.1H1080.3z"/>
		
			<linearGradient id="SVGID_00000106835182882642193890000017129918419908699538_" gradientUnits="userSpaceOnUse" x1="524.9305" y1="986.0244" x2="1631.4316" y2="986.0244">
			<stop  offset="0" style="stop-color:#F7E5B9"/>
			<stop  offset="1.222186e-02" style="stop-color:#F8E8C0"/>
			<stop  offset="5.735046e-02" style="stop-color:#F9EFD6"/>
			<stop  offset="0.1105" style="stop-color:#FAF5E7"/>
			<stop  offset="0.1758" style="stop-color:#FBF9F3"/>
			<stop  offset="0.2668" style="stop-color:#FCFBFA"/>
			<stop  offset="0.5112" style="stop-color:#FCFCFC"/>
			<stop  offset="0.7261" style="stop-color:#FCFBFA"/>
			<stop  offset="0.8178" style="stop-color:#FBF9F3"/>
			<stop  offset="0.886" style="stop-color:#FAF5E6"/>
			<stop  offset="0.9426" style="stop-color:#F9EED5"/>
			<stop  offset="0.9915" style="stop-color:#F7E7BE"/>
			<stop  offset="1" style="stop-color:#F7E5B9"/>
		</linearGradient>
		<path style="fill:url(#SVGID_00000106835182882642193890000017129918419908699538_);stroke:#FFFFFF;stroke-miterlimit:10;" d="
			M1080.3,995.1c0,0,284.7,0,400.3,0s149.7-18.1,149.7-18.1h-1100c0,0,34.2,18.1,149.7,18.1S1080.3,995.1,1080.3,995.1z"/>
	</g>
</g>
<g id="テキスト">
	<text transform="matrix(1.7127 0 0 1 655.9985 483.5918)"><tspan x="0" y="0" class="st8 st9 st10">Wellcome</tspan><tspan x="0" y="160" class="st8 st9 st10">To</tspan></text>
	<g>
		<g id="ロゴ">
			<g id="外枠">
				<path class="st8" d="M668.8,704.7h183.5c7.1,0,12.7,4.4,12.7,9.9v142.9c0,5.5-5.7,9.9-12.7,9.9H668.8c-7.1,0-12.7-4.4-12.7-9.9
					V714.7C656.2,709.2,661.9,704.7,668.8,704.7z"/>
				<path class="st8" d="M673.8,711.2h173.4c5.2,0,9.5,3.3,9.5,7.4v135c0,4.1-4.3,7.4-9.5,7.4H673.8c-5.2,0-9.5-3.3-9.5-7.4v-135
					C664.3,714.4,668.6,711.2,673.8,711.2z"/>
			</g>
			<g id="内斜め線">
				<g>
					<line class="st11" x1="672.7" y1="802.3" x2="781.4" y2="717.8"/>
					<line class="st11" x1="739.5" y1="854.4" x2="848.1" y2="769.8"/>
				</g>
			</g>
			<g id="文字">
				<text transform="matrix(1.2838 0 0 1 678.8472 757.6128)" class="st12 st9 st13">C</text>
				<text transform="matrix(1.2838 0 0 1 726.8828 809.7207)" class="st12 st9 st14">W</text>
				<text transform="matrix(1.2838 0 0 1 800.1826 851.8662)" class="st12 st9 st13">C</text>
			</g>
		</g>
		<g id="タイトル">
			<g>
				<text transform="matrix(0.7139 0 0 1 914.0957 816.5176)" class="st15 st16 st17">Chacha WEB Create</text>
			</g>
		</g>
	</g>
</g>
</svg>
