<svg xmlns="http://www.w3.org/2000/svg" viewBox="0 0 300 300"><path d="M157.86 29h-15.72c-39.89 0-72.33 32.45-72.33 72.33v97.33c0 39.89 32.45 72.34 72.33 72.34h15.72c39.89 0 72.33-32.45 72.33-72.34v-97.33c0-39.88-32.45-72.33-72.33-72.33zm-8.99 62.32h2.27c4.4 0 7.97 3.58 7.97 7.97v23.76c0 4.4-3.58 7.97-7.97 7.97h-2.27c-4.4 0-7.97-3.58-7.97-7.97V99.29c-.01-4.39 3.57-7.97 7.97-7.97zm74.32 107.34c0 36.03-29.31 65.34-65.33 65.34h-15.72c-36.03 0-65.33-29.31-65.33-65.34v-97.33C76.81 65.3 106.12 36 142.14 36h4.36v48.52c-7.13 1.14-12.61 7.32-12.61 14.77v23.76c0 8.26 6.72 14.97 14.97 14.97h2.27c8.26 0 14.97-6.72 14.97-14.97V99.29c0-7.45-5.47-13.63-12.61-14.77V36h4.36c36.03 0 65.33 29.31 65.33 65.33v97.33z" fill="#78c8cc"/></svg>