<?xml version="1.0" encoding="utf-8"?>
<!-- Generator: Adobe Illustrator 26.3.1, SVG Export Plug-In . SVG Version: 6.00 Build 0)  -->
<svg version="1.1" id="レイヤー_1" xmlns="http://www.w3.org/2000/svg" xmlns:xlink="http://www.w3.org/1999/xlink" x="0px"
	 y="0px" viewBox="0 0 300 300" style="enable-background:new 0 0 300 300;" xml:space="preserve">
<style type="text/css">
	.st0{fill:#78C8CC;}
</style>
<path class="st0" d="M157.86,29h-15.72c-39.89,0-72.33,32.45-72.33,72.33v97.33c0,39.89,32.45,72.34,72.33,72.34h15.72
	c39.89,0,72.33-32.45,72.33-72.34v-97.33C230.19,61.45,197.74,29,157.86,29z M148.87,91.32h2.27c4.4,0,7.97,3.58,7.97,7.97v23.76
	c0,4.4-3.58,7.97-7.97,7.97h-2.27c-4.4,0-7.97-3.58-7.97-7.97V99.29C140.89,94.9,144.47,91.32,148.87,91.32z M223.19,198.66
	c0,36.03-29.31,65.34-65.33,65.34h-15.72c-36.03,0-65.33-29.31-65.33-65.34v-97.33c0-36.03,29.31-65.33,65.33-65.33h4.36v48.52
	c-7.13,1.14-12.61,7.32-12.61,14.77v23.76c0,8.26,6.72,14.97,14.97,14.97h2.27c8.26,0,14.97-6.72,14.97-14.97V99.29
	c0-7.45-5.47-13.63-12.61-14.77V36h4.36c36.03,0,65.33,29.31,65.33,65.33V198.66z"/>
</svg>
