<svg version="1.1" id="レイヤー_1" xmlns="http://www.w3.org/2000/svg" x="0" y="0" viewBox="0 0 566.9 226.8" xml:space="preserve"><style>.st0,.st1{fill:#65abd8;stroke:#fff;stroke-width:2;stroke-miterlimit:10}.st1{fill:none}.st2{fill:#fff}.st3{font-family:&apos;Apple-Chancery&apos;}.st4{font-size:49.0614px}</style><g id="ロゴ"><g id="外枠"><path class="st0" d="M11.3 43.4h119.6c4.6 0 8.3 3.7 8.3 8.3v119.6c0 4.6-3.7 8.3-8.3 8.3H11.3c-4.6 0-8.3-3.7-8.3-8.3V51.7c.1-4.6 3.8-8.3 8.3-8.3z"/><path class="st0" d="M14.6 48.8h113c3.4 0 6.2 2.8 6.2 6.2v113c0 3.4-2.8 6.2-6.2 6.2h-113c-3.4 0-6.2-2.8-6.2-6.2V55c0-3.5 2.8-6.2 6.2-6.2z"/></g><g id="内斜め線"><path class="st1" d="M13.9 125l70.8-70.7M57.4 168.6l70.8-70.8"/></g><g id="文字"><text transform="translate(17.875 87.643)" class="st2 st3 st4">C</text><text transform="translate(49.188 131.246)" class="st2 st3" font-size="51.644">W</text><text transform="translate(96.961 166.513)" class="st2 st3 st4">C</text></g></g><text transform="matrix(.5561 0 0 1 171.207 136.934)" font-size="100" font-family="BrushScriptMT" fill="#65abd8" id="タイトル">Chacha WEB Create</text></svg>