<?xml version="1.0" encoding="utf-8"?>
<!-- Generator: Adobe Illustrator 26.3.1, SVG Export Plug-In . SVG Version: 6.00 Build 0)  -->
<svg version="1.1" id="レイヤー_1" xmlns="http://www.w3.org/2000/svg" xmlns:xlink="http://www.w3.org/1999/xlink" x="0px"
	 y="0px" viewBox="0 0 566.9 226.8" style="enable-background:new 0 0 566.9 226.8;" xml:space="preserve">
<style type="text/css">
	.st0{fill:#65ABD8;stroke:#FFFFFF;stroke-width:2;stroke-miterlimit:10;}
	.st1{fill:none;stroke:#FFFFFF;stroke-width:2;stroke-miterlimit:10;}
	.st2{fill:#FFFFFF;}
	.st3{font-family:'Apple-Chancery';}
	.st4{font-size:42.8503px;}
	.st5{font-size:45.106px;}
	.st6{fill:#65ABD8;}
	.st7{font-family:'SignPainter-HouseScriptSemibold';}
	.st8{font-size:137.5284px;}
</style>
<g id="ロゴ">
	<g id="外枠">
		<path class="st0" d="M8.5,49.7h112c4.3,0,7.8,3.2,7.8,7.2v104.5c0,4-3.5,7.2-7.8,7.2H8.5c-4.3,0-7.8-3.2-7.8-7.2V56.9
			C0.8,52.9,4.3,49.7,8.5,49.7z"/>
		<path class="st0" d="M11.6,54.4h105.8c3.2,0,5.8,2.4,5.8,5.4v98.7c0,3-2.6,5.4-5.8,5.4H11.6c-3.2,0-5.8-2.4-5.8-5.4V59.8
			C5.8,56.8,8.4,54.4,11.6,54.4z"/>
	</g>
	<g id="内斜め線">
		<path class="st1" d="M10.9,121l66.3-61.7 M51.7,159L118,97.2"/>
	</g>
	<g id="文字">
		<text transform="matrix(1.0723 0 0 1 14.6428 88.3275)" class="st2 st3 st4">C</text>
		<text transform="matrix(1.0723 0 0 1 44.0734 126.4071)" class="st2 st3 st5">W</text>
		<text transform="matrix(1.0723 0 0 1 88.7101 157.2059)" class="st2 st3 st4">C</text>
	</g>
</g>
<text id="タイトル" transform="matrix(0.4852 0 0 1 144.1899 150.5316)" class="st6 st7 st8">Chacha WEB Create</text>
</svg>
