<?xml version="1.0" encoding="utf-8"?>
<!-- Generator: Adobe Illustrator 26.3.1, SVG Export Plug-In . SVG Version: 6.00 Build 0)  -->
<svg version="1.1" id="レイヤー_1" xmlns="http://www.w3.org/2000/svg" xmlns:xlink="http://www.w3.org/1999/xlink" x="0px"
	 y="0px" viewBox="0 0 566.9 226.8" style="enable-background:new 0 0 566.9 226.8;" xml:space="preserve">
<style type="text/css">
	.st0{fill:#65ABD8;stroke:#FFFFFF;stroke-width:2;stroke-miterlimit:10;}
	.st1{fill:none;stroke:#FFFFFF;stroke-width:2;stroke-miterlimit:10;}
	.st2{fill:#FFFFFF;}
	.st3{font-family:'Apple-Chancery';}
	.st4{font-size:49.0614px;}
	.st5{font-size:51.6436px;}
	.st6{fill:#65ABD8;}
	.st7{font-family:'BrushScriptMT';}
	.st8{font-size:100px;}
</style>
<g id="ロゴ">
	<g id="外枠">
		<path class="st0" d="M11.3,43.4h119.6c4.6,0,8.3,3.7,8.3,8.3v119.6c0,4.6-3.7,8.3-8.3,8.3H11.3c-4.6,0-8.3-3.7-8.3-8.3V51.7
			C3.1,47.1,6.8,43.4,11.3,43.4z"/>
		<path class="st0" d="M14.6,48.8h113c3.4,0,6.2,2.8,6.2,6.2v113c0,3.4-2.8,6.2-6.2,6.2h-113c-3.4,0-6.2-2.8-6.2-6.2v-113
			C8.4,51.5,11.2,48.8,14.6,48.8z"/>
	</g>
	<g id="内斜め線">
		<g>
			<line class="st1" x1="13.9" y1="125" x2="84.7" y2="54.3"/>
			<line class="st1" x1="57.4" y1="168.6" x2="128.2" y2="97.8"/>
		</g>
	</g>
	<g id="文字">
		<text transform="matrix(1 0 0 1 17.8753 87.6427)" class="st2 st3 st4">C</text>
		<text transform="matrix(1 0 0 1 49.1878 131.2463)" class="st2 st3 st5">W</text>
		<text transform="matrix(1 0 0 1 96.9613 166.5129)" class="st2 st3 st4">C</text>
	</g>
</g>
<g id="タイトル">
	<g>
		<text transform="matrix(0.5561 0 0 1 171.2068 136.934)" class="st6 st7 st8">Chacha WEB Create</text>
	</g>
</g>
</svg>
